<svg width="79" height="37" viewBox="0 0 79 37" fill="none" xmlns="http://www.w3.org/2000/svg">
<path d="M6.48 24.416C6.048 24.416 5.52 24.272 4.896 23.984C4.296 23.696 3.696 23.336 3.096 22.904C2.496 22.472 1.98 22.028 1.548 21.572C1.116 21.092 0.852 20.672 0.756 20.312C1.548 19.952 2.376 19.46 3.24 18.836C4.104 18.212 4.92 17.528 5.688 16.784C6.456 16.04 7.092 15.32 7.596 14.624C7.644 14.672 7.68 14.792 7.704 14.984C7.752 15.152 7.776 15.296 7.776 15.416C7.776 15.896 7.572 16.388 7.164 16.892C6.78 17.372 6.276 17.852 5.652 18.332C5.028 18.788 4.356 19.22 3.636 19.628C2.94 20.036 2.292 20.396 1.692 20.708C2.244 21.092 2.748 21.452 3.204 21.788C3.684 22.1 4.248 22.412 4.896 22.724C5.568 23.036 6.444 23.408 7.524 23.84C7.428 23.96 7.284 24.092 7.092 24.236C6.924 24.356 6.72 24.416 6.48 24.416ZM14.4925 28.628C13.2445 28.628 12.3085 28.22 11.6845 27.404C11.0845 26.588 10.7845 25.484 10.7845 24.092C10.7845 22.892 10.9885 21.476 11.3965 19.844C11.8045 18.212 12.3445 16.508 13.0165 14.732C13.6885 12.932 14.4325 11.18 15.2485 9.476C16.0885 7.772 16.9285 6.236 17.7685 4.868C18.6085 3.476 19.4005 2.372 20.1445 1.556C20.8885 0.715999 21.5005 0.295998 21.9805 0.295998C22.3885 0.295998 22.6765 0.547999 22.8445 1.052C23.0365 1.556 23.1325 2.06 23.1325 2.564C23.1325 3.236 22.9885 4.052 22.7005 5.012C22.4125 5.972 22.0045 7.004 21.4765 8.108C20.9485 9.188 20.3365 10.256 19.6405 11.312C18.9445 12.368 18.1885 13.34 17.3725 14.228C16.5805 15.092 15.7645 15.776 14.9245 16.28C14.7805 16.544 14.5645 17.096 14.2765 17.936C14.0125 18.752 13.7605 19.7 13.5205 20.78C13.3045 21.836 13.1965 22.868 13.1965 23.876C13.1965 24.86 13.3405 25.664 13.6285 26.288C13.9405 26.936 14.4565 27.26 15.1765 27.26C15.8725 27.26 16.5925 26.972 17.3365 26.396C18.0805 25.844 18.6805 25.124 19.1365 24.236C18.2485 23.78 17.5885 23.12 17.1565 22.256C16.7245 21.368 16.5085 20.48 16.5085 19.592C16.5085 18.44 16.8085 17.516 17.4085 16.82C18.0085 16.124 18.7165 15.776 19.5325 15.776C20.2285 15.776 20.7805 16.064 21.1885 16.64C21.5965 17.192 21.8005 18.008 21.8005 19.088C21.8005 19.88 21.6925 20.696 21.4765 21.536C21.2605 22.376 20.9485 23.192 20.5405 23.984C20.6845 24.008 20.8285 24.032 20.9725 24.056C21.1405 24.08 21.3085 24.092 21.4765 24.092C22.3405 24.092 23.0605 23.888 23.6365 23.48C24.2125 23.048 24.6925 22.532 25.0765 21.932C25.4845 21.308 25.8205 20.72 26.0845 20.168L26.5165 20.636C25.8445 22.292 25.0405 23.396 24.1045 23.948C23.1925 24.476 22.2805 24.74 21.3685 24.74C21.1765 24.74 20.9845 24.728 20.7925 24.704C20.6005 24.68 20.4085 24.656 20.2165 24.632C19.5685 25.736 18.7645 26.672 17.8045 27.44C16.8685 28.232 15.7645 28.628 14.4925 28.628ZM19.4965 23.516C19.7605 22.964 19.9645 22.388 20.1085 21.788C20.2525 21.164 20.3245 20.528 20.3245 19.88C20.3245 19.04 20.2045 18.38 19.9645 17.9C19.7485 17.42 19.4725 17.18 19.1365 17.18C18.7765 17.18 18.4525 17.432 18.1645 17.936C17.9005 18.416 17.7685 19.028 17.7685 19.772C17.7685 20.42 17.9005 21.104 18.1645 21.824C18.4285 22.544 18.8725 23.108 19.4965 23.516ZM15.3205 14.876C15.9925 14.348 16.6405 13.676 17.2645 12.86C17.9125 12.044 18.5125 11.18 19.0645 10.268C19.6165 9.332 20.1085 8.42 20.5405 7.532C20.9725 6.644 21.3085 5.84 21.5485 5.12C21.7885 4.4 21.9085 3.86 21.9085 3.5C21.9085 3.38 21.8965 3.308 21.8725 3.284C21.8485 3.236 21.8125 3.212 21.7645 3.212C21.5725 3.212 21.2005 3.56 20.6485 4.256C20.1205 4.928 19.5205 5.84 18.8485 6.992C18.2005 8.12 17.5525 9.38 16.9045 10.772C16.2565 12.14 15.7285 13.508 15.3205 14.876ZM27.7965 27.152C26.7645 27.152 26.0325 26.828 25.6005 26.18C25.1685 25.556 24.9525 24.788 24.9525 23.876C24.9525 23.132 25.0725 22.364 25.3125 21.572C25.5525 20.78 25.8645 20.036 26.2485 19.34C26.6565 18.644 27.1005 18.08 27.5805 17.648C28.0845 17.216 28.5885 17 29.0925 17C29.2125 17 29.3325 17.024 29.4525 17.072C29.5965 17.096 29.7285 17.132 29.8485 17.18C29.6325 17.372 29.3685 17.732 29.0565 18.26C28.7685 18.764 28.4925 19.352 28.2285 20.024C27.9645 20.672 27.7365 21.32 27.5445 21.968C27.3765 22.616 27.2925 23.168 27.2925 23.624C27.2925 24.344 27.4125 24.872 27.6525 25.208C27.8925 25.52 28.2045 25.676 28.5885 25.676C29.0925 25.676 29.6925 25.412 30.3885 24.884C31.0845 24.332 31.7685 23.636 32.4405 22.796C31.7685 22.244 31.2405 21.524 30.8565 20.636C30.4965 19.724 30.3165 18.8 30.3165 17.864C30.3165 17.072 30.4485 16.328 30.7125 15.632C31.0005 14.936 31.4085 14.384 31.9365 13.976C32.4645 13.544 33.1005 13.328 33.8445 13.328C34.8285 13.328 35.4885 13.592 35.8245 14.12C36.1605 14.648 36.3285 15.308 36.3285 16.1C36.3285 17.036 36.1005 18.08 35.6445 19.232C35.1885 20.36 34.6125 21.452 33.9165 22.508C34.3485 22.748 34.8045 22.868 35.2845 22.868C35.6685 22.868 36.1005 22.796 36.5805 22.652C37.0605 22.484 37.5285 22.208 37.9845 21.824C38.4645 21.44 38.8485 20.924 39.1365 20.276L39.5685 20.636C39.0885 21.764 38.4045 22.568 37.5165 23.048C36.6525 23.504 35.8245 23.732 35.0325 23.732C34.7205 23.732 34.4205 23.708 34.1325 23.66C33.8445 23.588 33.5685 23.492 33.3045 23.372C32.4885 24.452 31.5885 25.352 30.6045 26.072C29.6445 26.792 28.7085 27.152 27.7965 27.152ZM33.0885 21.86C33.6885 20.972 34.1805 20.048 34.5645 19.088C34.9725 18.104 35.1765 17.18 35.1765 16.316C35.1765 15.62 35.0685 15.116 34.8525 14.804C34.6605 14.468 34.4085 14.3 34.0965 14.3C33.6165 14.3 33.1245 14.648 32.6205 15.344C32.1165 16.04 31.8645 16.916 31.8645 17.972C31.8645 18.668 31.9605 19.376 32.1525 20.096C32.3685 20.792 32.6805 21.38 33.0885 21.86ZM40.5849 27.08C40.1769 27.08 39.7569 26.972 39.3249 26.756C38.9169 26.564 38.5809 26.24 38.3169 25.784C38.0289 25.328 37.8849 24.752 37.8849 24.056C37.8849 23.264 38.0769 22.376 38.4609 21.392C38.8449 20.408 39.3609 19.436 40.0089 18.476C40.6569 17.492 41.4009 16.592 42.2409 15.776C43.0809 14.936 43.9569 14.276 44.8689 13.796C45.7809 13.292 46.6809 13.04 47.5689 13.04C48.0729 13.04 48.4569 13.136 48.7209 13.328C49.0089 13.496 49.1529 13.772 49.1529 14.156C49.1529 14.252 49.1409 14.336 49.1169 14.408C49.1169 14.48 49.1049 14.564 49.0809 14.66C48.9609 14.468 48.7809 14.336 48.5409 14.264C48.3249 14.168 48.0489 14.12 47.7129 14.12C46.9449 14.12 46.1889 14.36 45.4449 14.84C44.7249 15.296 44.0529 15.908 43.4289 16.676C42.8289 17.42 42.3009 18.224 41.8449 19.088C41.3889 19.952 41.0289 20.792 40.7649 21.608C40.5249 22.4 40.4049 23.072 40.4049 23.624C40.4049 24.152 40.5249 24.572 40.7649 24.884C41.0049 25.196 41.3169 25.352 41.7009 25.352C42.3489 25.352 43.1289 24.944 44.0409 24.128C44.9769 23.312 45.9249 22.16 46.8849 20.672C47.8449 19.184 48.7089 17.444 49.4769 15.452C50.0049 14.06 50.5449 12.644 51.0969 11.204C51.6729 9.764 52.2489 8.384 52.8249 7.064C53.4009 5.72 53.9529 4.532 54.4809 3.5C55.0329 2.444 55.5489 1.616 56.0289 1.016C56.5329 0.391999 56.9769 0.079999 57.3609 0.079999C57.5529 0.079999 57.7209 0.163999 57.8649 0.331998C58.0089 0.475999 58.0809 0.667999 58.0809 0.907999C58.0809 1.292 57.8769 1.952 57.4689 2.888C57.0849 3.8 56.5689 4.904 55.9209 6.2C55.2969 7.472 54.6369 8.864 53.9409 10.376C53.2449 11.888 52.5729 13.424 51.9249 14.984C51.3009 16.544 50.7849 18.056 50.3769 19.52C49.9929 20.96 49.8009 22.28 49.8009 23.48C49.8009 24.152 49.8369 24.656 49.9089 24.992C49.9809 25.328 50.2209 25.496 50.6289 25.496C51.1329 25.496 51.7209 25.28 52.3929 24.848C53.0649 24.416 53.7369 23.804 54.4089 23.012C55.0809 22.22 55.6689 21.272 56.1729 20.168L56.6049 20.492C56.1489 21.716 55.5249 22.82 54.7329 23.804C53.9409 24.764 53.0889 25.52 52.1769 26.072C51.2889 26.648 50.4369 26.936 49.6209 26.936C48.7329 26.936 48.1089 26.636 47.7489 26.036C47.4129 25.46 47.2449 24.86 47.2449 24.236C47.2449 23.828 47.3049 23.288 47.4249 22.616C47.5449 21.944 47.7129 21.2 47.9289 20.384C47.1609 21.656 46.3449 22.808 45.4809 23.84C44.6169 24.848 43.7649 25.64 42.9249 26.216C42.1089 26.792 41.3289 27.08 40.5849 27.08ZM57.0246 36.08C56.4246 36.08 55.8966 35.912 55.4406 35.576C54.9846 35.264 54.7566 34.796 54.7566 34.172C54.7566 33.404 54.9486 32.72 55.3326 32.12C55.7166 31.52 56.2326 30.968 56.8806 30.464C57.5286 29.96 58.2726 29.48 59.1126 29.024C59.9526 28.568 60.8286 28.112 61.7406 27.656C62.0766 26.768 62.4126 25.784 62.7486 24.704C63.1086 23.6 63.4446 22.388 63.7566 21.068C62.9886 22.316 62.1606 23.396 61.2726 24.308C60.4086 25.196 59.4846 25.64 58.5006 25.64C58.0446 25.64 57.5886 25.544 57.1326 25.352C56.7006 25.136 56.3406 24.812 56.0526 24.38C55.7646 23.948 55.6206 23.396 55.6206 22.724C55.6206 22.052 55.7286 21.272 55.9446 20.384C56.1846 19.496 56.4726 18.632 56.8086 17.792C57.1446 16.952 57.4926 16.256 57.8526 15.704C58.2126 15.152 58.5246 14.876 58.7886 14.876C58.8846 14.876 59.0526 14.912 59.2926 14.984C59.5566 15.056 59.7966 15.164 60.0126 15.308C60.2526 15.428 60.3726 15.56 60.3726 15.704C60.1566 16.016 59.9166 16.46 59.6526 17.036C59.3886 17.612 59.1246 18.26 58.8606 18.98C58.6206 19.676 58.4166 20.36 58.2486 21.032C58.0806 21.704 57.9966 22.28 57.9966 22.76C57.9966 23.192 58.0926 23.54 58.2846 23.804C58.4766 24.068 58.8126 24.2 59.2926 24.2C59.7486 24.2 60.2526 23.984 60.8046 23.552C61.3806 23.096 61.9446 22.52 62.4966 21.824C63.0726 21.128 63.6006 20.384 64.0806 19.592C64.1526 19.328 64.2126 19.064 64.2606 18.8C64.3326 18.512 64.3926 18.224 64.4406 17.936C64.5126 17.6 64.6806 17.216 64.9446 16.784C65.2326 16.328 65.6766 16.1 66.2766 16.1C66.3966 16.1 66.5166 16.112 66.6366 16.136C66.7566 16.136 66.8886 16.16 67.0326 16.208C67.0326 16.592 66.9126 17.312 66.6726 18.368C66.4566 19.4 66.1326 20.612 65.7006 22.004C65.2926 23.396 64.8006 24.824 64.2246 26.288C65.3526 25.856 66.4566 25.148 67.5366 24.164C68.6166 23.156 69.4926 21.824 70.1646 20.168L70.6326 20.528C70.2726 21.68 69.7206 22.688 68.9766 23.552C68.2566 24.392 67.4406 25.124 66.5286 25.748C65.6166 26.348 64.7166 26.852 63.8286 27.26C63.2046 28.796 62.5206 30.236 61.7766 31.58C61.0566 32.924 60.2886 34.004 59.4726 34.82C58.6806 35.66 57.8646 36.08 57.0246 36.08ZM56.8446 34.928C57.2046 34.928 57.8046 34.448 58.6446 33.488C59.5086 32.552 60.4206 30.896 61.3806 28.52C60.3966 29.048 59.4846 29.564 58.6446 30.068C57.8046 30.596 57.1326 31.16 56.6286 31.76C56.1246 32.36 55.8726 33.056 55.8726 33.848C55.8726 34.04 55.9446 34.268 56.0886 34.532C56.2326 34.796 56.4846 34.928 56.8446 34.928ZM72.9608 24.416C72.7208 24.416 72.5168 24.356 72.3488 24.236C72.1808 24.092 72.0368 23.96 71.9168 23.84C73.0208 23.408 73.8968 23.036 74.5448 22.724C75.1928 22.412 75.7568 22.1 76.2368 21.788C76.7168 21.452 77.2208 21.092 77.7488 20.708C77.1488 20.396 76.4888 20.036 75.7688 19.628C75.0728 19.22 74.4128 18.788 73.7888 18.332C73.1648 17.852 72.6488 17.372 72.2408 16.892C71.8568 16.388 71.6648 15.896 71.6648 15.416C71.6648 15.296 71.6888 15.152 71.7368 14.984C71.7848 14.792 71.8208 14.672 71.8447 14.624C72.3488 15.32 72.9848 16.04 73.7528 16.784C74.5208 17.528 75.3368 18.212 76.2008 18.836C77.0648 19.46 77.8928 19.952 78.6848 20.312C78.5888 20.672 78.3248 21.092 77.8928 21.572C77.4608 22.028 76.9448 22.472 76.3448 22.904C75.7448 23.336 75.1328 23.696 74.5088 23.984C73.9088 24.272 73.3928 24.416 72.9608 24.416Z" fill="black"/>
</svg>
