<svg width="745" height="472" viewBox="0 0 745 472" fill="none" xmlns="http://www.w3.org/2000/svg">
<path d="M95.6491 364.416C90.6336 367.815 85.7101 369.296 80.8785 368.859C76.1655 368.445 71.7621 366.739 67.6686 363.74C63.6456 360.694 60.1741 357.016 57.254 352.707C53.4722 347.126 50.5141 340.936 48.3798 334.136C46.2456 327.336 44.9032 320.411 44.3528 313.362C43.8252 306.195 44.0929 299.365 45.1561 292.872C46.1715 286.308 47.9618 280.507 50.5271 275.47C53.1152 270.315 56.4225 266.373 60.4491 263.644C63.3454 261.681 66.1552 260.808 68.8787 261.024C71.6249 261.122 74.123 262.831 76.3729 266.151C77.7611 268.199 78.9877 270.77 80.0525 273.862C81.0694 276.884 81.7912 280.003 82.2179 283.218C82.5968 286.363 82.5711 289.215 82.1407 291.775C81.7811 294.286 80.8595 296.045 79.3761 297.05C78.8109 297.433 78.0908 297.663 77.2157 297.741C76.4112 297.771 75.4859 297.47 74.4397 296.839C74.6855 294.92 74.8458 292.647 74.9206 290.019C75.0181 287.273 74.9971 284.504 74.8577 281.712C74.6703 278.85 74.2836 276.225 73.6975 273.839C73.1341 271.335 72.3498 269.341 71.3445 267.857C70.3871 266.445 69.1973 265.602 67.7752 265.328C66.3758 264.937 64.7578 265.363 62.9211 266.608C59.8836 268.666 57.5425 272.056 55.8978 276.779C54.3238 281.453 53.3949 286.928 53.1111 293.202C52.85 299.357 53.2066 305.816 54.1809 312.578C55.1551 319.339 56.6957 325.872 58.8025 332.175C60.98 338.431 63.6964 343.96 66.9516 348.764C69.2973 352.225 72.0417 355.21 75.1848 357.719C78.2801 360.157 81.569 361.588 85.0514 362.011C88.6523 362.457 92.2187 361.483 95.7508 359.09C99.4948 356.553 102.485 352.98 104.723 348.371C107.03 343.715 108.566 338.603 109.328 333.035C110.091 327.467 110.026 322.048 109.134 316.777L111.336 316.831C112.116 323.002 112.163 329.156 111.475 335.291C110.74 341.355 109.09 346.906 106.525 351.943C104.007 357.051 100.382 361.208 95.6491 364.416ZM126.265 336.092C124.923 337.002 123.097 336.589 120.789 334.855C118.48 333.121 116.368 330.842 114.453 328.016C112.155 324.625 109.992 320.216 107.962 314.788C105.933 309.359 104.09 303.444 102.432 297.043C100.774 290.642 99.3996 284.202 98.3092 277.726C97.2894 271.201 96.616 265.112 96.2892 259.458C95.9623 253.803 96.0447 249.057 96.5364 245.219C97.028 241.382 98.0509 238.936 99.605 237.883C100.876 237.021 102.286 237.2 103.834 238.419C105.404 239.519 106.668 240.776 107.625 242.189C108.966 244.167 110.134 246.88 111.131 250.328C112.198 253.728 113.055 257.579 113.703 261.882C114.304 266.114 114.632 270.478 114.69 274.974C114.748 279.471 114.461 283.84 113.831 288.081C113.152 292.252 112.08 295.917 110.612 299.076C111.153 301.699 111.967 304.497 113.055 307.471C114.213 310.397 115.488 313.192 116.881 315.856C118.226 318.449 119.545 320.7 120.838 322.607C121.364 323.384 121.819 324.055 122.202 324.62C122.656 325.137 123.085 325.619 123.491 326.066C122.517 322.499 121.686 318.991 120.997 315.541C120.331 311.972 119.903 308.603 119.714 305.433C119.476 302.192 119.525 299.221 119.859 296.52C120.216 293.701 120.932 291.258 122.005 289.191C123.03 287.053 124.496 285.338 126.403 284.045C128.381 282.705 130.271 282.146 132.071 282.369C133.894 282.474 135.556 283.1 137.056 284.249C138.578 285.278 139.866 286.57 140.919 288.125C142.403 290.314 143.451 292.697 144.062 295.272C144.744 297.799 145.342 300.28 145.858 302.714C146.373 305.148 147.229 307.248 148.426 309.014C149.384 310.427 150.36 311.259 151.356 311.512C152.423 311.717 153.415 311.508 154.334 310.886C155.958 309.785 157.233 307.787 158.158 304.893C159.153 301.95 159.778 298.538 160.033 294.654C160.24 290.7 160.02 286.725 159.375 282.73L161.614 283.069C162.476 287.535 162.805 291.899 162.601 296.161C162.348 300.352 161.501 304.122 160.059 307.47C158.617 310.818 156.519 313.426 153.764 315.293C151.362 316.92 149.094 317.529 146.961 317.119C144.898 316.662 143.221 315.479 141.928 313.572C140.923 312.088 140.081 310.237 139.401 308.017C138.722 305.797 137.983 303.566 137.185 301.324C136.458 299.034 135.519 297.041 134.37 295.345C133.126 293.509 131.852 292.465 130.548 292.215C129.244 291.964 128.027 292.222 126.897 292.988C125.131 294.185 124.02 295.968 123.565 298.338C123.11 300.709 123.047 303.431 123.378 306.505C123.732 309.461 124.217 312.534 124.833 315.725C125.519 318.867 126.169 321.88 126.783 324.763C127.349 327.575 127.651 329.999 127.69 332.034C127.729 334.069 127.254 335.422 126.265 336.092ZM109.19 294.01C110.114 291.115 110.681 287.845 110.89 284.198C111.17 280.504 111.213 276.764 111.018 272.979C110.776 269.123 110.405 265.457 109.906 261.982C109.406 258.506 108.791 255.469 108.061 252.872C107.332 250.274 106.608 248.445 105.89 247.385C105.65 247.032 105.471 246.844 105.353 246.821C105.187 246.728 105.033 246.729 104.891 246.825C104.397 247.16 104.043 248.843 103.829 251.874C103.638 254.787 103.655 258.538 103.879 263.128C104.103 267.718 104.65 272.707 105.519 278.097C106.388 283.487 107.612 288.791 109.19 294.01ZM177.411 302.824C175.221 304.308 172.882 304.811 170.393 304.333C167.882 303.973 165.621 302.31 163.61 299.343C161.887 296.8 160.609 293.697 159.776 290.035C158.896 286.302 158.488 282.352 158.551 278.186C158.566 273.95 159.02 269.828 159.913 265.821C160.828 261.696 162.185 257.994 163.982 254.714C165.85 251.386 168.162 248.789 170.917 246.922C173.672 245.055 176.47 244.241 179.312 244.48C182.107 244.648 184.317 245.933 185.945 248.335C187.142 250.101 187.461 251.637 186.903 252.943C186.415 254.201 185.395 255.357 183.841 256.41C183.599 255.749 183.298 255.077 182.938 254.393C182.6 253.591 182.24 252.907 181.857 252.342C180.756 250.717 179.434 249.603 177.891 248.999C176.3 248.325 174.551 248.634 172.644 249.927C170.666 251.267 169.131 253.338 168.04 256.139C166.901 258.869 166.168 262.046 165.84 265.67C165.465 269.223 165.445 272.844 165.781 276.534C166.116 280.224 166.746 283.663 167.669 286.851C168.593 290.039 169.749 292.657 171.137 294.706C173.004 297.461 174.891 298.192 176.798 296.9C178.423 295.799 179.686 293.86 180.588 291.084C181.443 288.238 182.069 284.978 182.467 281.307C182.888 277.517 183.155 273.728 183.268 269.94C183.382 266.153 183.427 262.72 183.403 259.644C183.399 259.028 183.432 258.697 183.502 258.649C183.974 258.432 184.6 258.215 185.379 257.996C186.229 257.729 187.021 257.605 187.755 257.623C188.489 257.641 189.047 257.932 189.43 258.497C189.861 259.133 190.141 260.232 190.272 261.793C190.354 263.283 190.485 264.998 190.666 266.938C190.846 268.877 191.121 270.804 191.49 272.718C191.812 274.562 192.404 276.119 193.265 277.391C193.983 278.451 194.984 279.319 196.267 279.995C197.503 280.601 198.756 280.473 200.028 279.612C201.935 278.319 203.509 275.242 204.75 270.381C205.944 265.449 206.239 259.116 205.636 251.381L207.414 251.722C208.515 256.542 208.882 261.19 208.513 265.666C208.145 270.142 207.169 274.102 205.586 277.546C204.073 280.942 202.045 283.502 199.502 285.225C196.888 286.996 194.419 287.536 192.094 286.843C189.84 286.103 188.091 284.814 186.846 282.978C186.559 282.554 186.283 282.071 186.019 281.528C185.707 280.915 185.394 280.302 185.082 279.689C184.821 285.845 184.113 290.809 182.958 294.581C181.874 298.305 180.025 301.053 177.411 302.824ZM223.507 268.958C222.306 269.771 220.855 270.291 219.152 270.517C217.569 270.766 215.933 270.482 214.247 269.667C212.49 268.899 210.917 267.491 209.529 265.442C207.949 263.111 206.743 260.114 205.91 256.452C205.078 252.79 204.658 248.9 204.65 244.782C204.595 240.593 204.99 236.46 205.834 232.383C206.631 228.235 207.893 224.545 209.62 221.313C211.299 218.01 213.446 215.473 216.059 213.702C217.543 212.697 218.865 212.213 220.025 212.252C221.207 212.172 222.182 212.697 222.948 213.827C223.139 214.11 223.271 214.381 223.344 214.641C223.488 214.853 223.62 215.124 223.741 215.455C223.005 215.129 222.212 215.099 221.362 215.366C220.535 215.514 219.626 215.924 218.638 216.594C216.377 218.126 214.631 220.34 213.398 223.237C212.188 226.015 211.431 229.157 211.126 232.662C210.844 236.049 210.894 239.468 211.275 242.921C211.656 246.374 212.272 249.564 213.123 252.492C213.996 255.302 214.983 257.52 216.084 259.144C217.137 260.698 218.328 261.695 219.657 262.135C220.986 262.575 222.215 262.411 223.345 261.645C225.253 260.353 226.735 257.596 227.792 253.375C228.919 249.107 229.411 243.825 229.269 237.53C229.127 231.236 228.199 224.391 226.486 216.996C225.264 211.846 224.029 206.601 222.782 201.261C221.605 195.874 220.548 190.663 219.61 185.629C218.625 180.524 217.88 175.926 217.375 171.836C216.894 167.626 216.761 164.16 216.977 161.436C217.216 158.595 217.901 156.791 219.031 156.025C219.596 155.642 220.258 155.554 221.017 155.761C221.728 155.898 222.323 156.319 222.802 157.026C223.567 158.156 224.283 160.505 224.95 164.074C225.638 167.525 226.322 171.803 226.999 176.91C227.7 181.899 228.534 187.313 229.501 193.151C230.468 198.99 231.554 204.851 232.758 210.736C234.033 216.572 235.53 222.051 237.25 227.174C238.992 232.179 241.059 236.447 243.453 239.979C244.793 241.957 245.905 243.369 246.787 244.214C247.669 245.059 248.71 245.075 249.911 244.261C251.395 243.256 252.694 241.447 253.811 238.836C254.927 236.224 255.684 233.082 256.083 229.41C256.481 225.739 256.321 221.776 255.602 217.521L257.52 217.613C258.619 222.125 258.984 226.619 258.616 231.095C258.2 235.501 257.2 239.425 255.616 242.869C254.152 246.336 252.218 248.883 249.816 250.51C247.203 252.282 244.768 252.643 242.511 251.595C240.373 250.57 238.682 249.139 237.438 247.302C236.624 246.102 235.723 244.392 234.736 242.175C233.749 239.958 232.759 237.433 231.768 234.6C232.044 239.876 231.94 244.894 231.456 249.655C230.923 254.346 229.995 258.376 228.672 261.747C227.419 265.07 225.697 267.474 223.507 268.958Z" fill="#FF7F50"/>
<path d="M303.16 364.318C301.394 365.515 299.399 366.146 297.175 366.21C294.951 366.274 293.312 365.529 292.259 363.975C291.732 363.198 291.263 362.125 290.85 360.755C290.485 359.456 290.133 358.252 289.793 357.142C287.362 348.687 285.101 340.787 283.01 333.442C280.919 326.098 278.948 318.929 277.096 311.938C275.244 304.946 273.498 297.882 271.859 290.747C270.289 283.564 268.8 275.966 267.39 267.953C265.041 270.267 263.142 272.636 261.693 275.061C260.267 277.368 259.181 279.341 258.436 280.979C257.643 282.547 257.035 283.475 256.611 283.762C256.328 283.954 255.809 284.1 255.052 284.2C254.318 284.182 253.596 284.105 252.885 283.968C252.126 283.761 251.627 283.481 251.387 283.127C252.697 281.106 254.278 278.798 256.128 276.204C258.048 273.562 260.242 270.942 262.707 268.344C265.172 265.745 267.889 263.441 270.856 261.43C273.964 259.324 277.395 257.618 281.148 256.311C284.972 254.957 288.824 254.253 292.705 254.2C296.539 254.076 300.129 254.735 303.477 256.177C306.826 257.619 309.648 260.036 311.946 263.427C314.436 267.1 315.777 270.829 315.972 274.615C316.118 278.33 315.472 282.015 314.032 285.671C312.544 289.256 310.629 292.666 308.287 295.903C305.897 299.069 303.363 302.023 300.686 304.765C298.031 307.389 295.575 309.62 293.317 311.46C291.011 313.229 289.292 314.496 288.162 315.262L287.103 315.98C289.914 324.692 292.724 333.251 295.533 341.655C298.413 350.012 300.956 357.566 303.16 364.318ZM286.377 313.997C290.119 311.153 293.609 307.86 296.847 304.12C300.155 300.331 302.799 296.323 304.779 292.095C306.711 287.797 307.696 283.47 307.734 279.115C307.724 274.689 306.355 270.463 303.626 266.436C301.041 262.622 298.016 260.136 294.552 258.979C291.159 257.774 287.595 257.611 283.862 258.492C280.152 259.253 276.637 260.759 273.317 263.009C274.198 269.937 275.844 277.842 278.254 286.723C280.664 295.603 283.372 304.695 286.377 313.997ZM343.963 330.483C341.773 331.967 339.433 332.47 336.945 331.992C334.433 331.633 332.172 329.969 330.162 327.002C328.438 324.459 327.16 321.357 326.328 317.694C325.448 313.961 325.039 310.012 325.102 305.846C325.117 301.609 325.571 297.488 326.464 293.481C327.379 289.356 328.736 285.653 330.534 282.374C332.402 279.046 334.713 276.449 337.468 274.582C340.223 272.715 343.022 271.901 345.864 272.14C348.658 272.308 350.869 273.593 352.496 275.995C353.693 277.761 354.012 279.297 353.454 280.602C352.967 281.861 351.946 283.016 350.392 284.069C350.15 283.408 349.849 282.736 349.489 282.053C349.152 281.25 348.791 280.567 348.409 280.002C347.307 278.377 345.985 277.263 344.442 276.659C342.852 275.985 341.103 276.294 339.195 277.586C337.217 278.927 335.683 280.997 334.592 283.799C333.453 286.529 332.719 289.706 332.392 293.33C332.016 296.883 331.996 300.504 332.332 304.194C332.668 307.883 333.297 311.322 334.221 314.51C335.144 317.699 336.3 320.317 337.688 322.366C339.555 325.121 341.442 325.852 343.35 324.559C344.974 323.458 346.238 321.52 347.14 318.744C347.994 315.897 348.62 312.638 349.018 308.967C349.439 305.176 349.707 301.388 349.82 297.6C349.933 293.812 349.978 290.38 349.955 287.303C349.95 286.688 349.983 286.356 350.054 286.309C350.526 286.092 351.151 285.874 351.931 285.655C352.781 285.388 353.572 285.264 354.306 285.282C355.04 285.3 355.599 285.592 355.982 286.157C356.412 286.793 356.693 287.891 356.823 289.452C356.905 290.943 357.037 292.658 357.217 294.597C357.397 296.537 357.672 298.463 358.042 300.378C358.363 302.221 358.955 303.779 359.817 305.051C360.535 306.11 361.536 306.978 362.819 307.655C364.054 308.261 365.307 308.133 366.579 307.271C368.486 305.979 370.061 302.902 371.302 298.041C372.495 293.109 372.79 286.775 372.187 279.041L373.965 279.382C375.067 284.202 375.433 288.85 375.065 293.326C374.696 297.802 373.72 301.762 372.137 305.206C370.624 308.602 368.597 311.161 366.053 312.885C363.44 314.656 360.971 315.195 358.646 314.503C356.392 313.763 354.642 312.474 353.398 310.637C353.111 310.214 352.835 309.731 352.57 309.188C352.258 308.575 351.946 307.962 351.633 307.349C351.372 313.505 350.664 318.469 349.509 322.241C348.425 325.965 346.576 328.712 343.963 330.483ZM401.851 288.007C399.449 289.635 397.111 290.292 394.837 289.978C392.633 289.616 390.837 288.41 389.449 286.362C388.012 284.243 386.999 281.682 386.408 278.681C385.817 275.68 385.215 272.738 384.602 269.855C384.011 266.853 383.093 264.434 381.849 262.598C380.317 260.337 378.521 259.132 376.461 258.982C374.423 258.713 372.422 258.575 370.458 258.566C371.657 263.835 372.643 268.939 373.414 273.88C374.185 278.821 374.651 282.628 374.814 285.301L372.639 284.146C372.384 281.639 371.836 278.093 370.997 273.508C370.228 268.875 369.089 263.771 367.579 258.197C366.394 257.969 365.466 257.361 364.796 256.372C363.36 254.253 362.788 252.115 363.079 249.959C363.37 247.803 363.799 246.534 364.364 246.151C365.141 245.624 365.804 245.69 366.353 246.349C366.925 246.889 367.331 247.335 367.571 247.689C367.81 248.042 368.077 248.892 368.371 250.239C368.688 251.467 368.918 252.187 369.062 252.399C369.732 253.388 370.884 253.947 372.518 254.077C374.175 254.088 376.069 254.145 378.2 254.247C380.283 254.278 382.357 254.677 384.422 255.442C386.509 256.089 388.319 257.543 389.851 259.803C391.287 261.923 392.288 264.388 392.854 267.201C393.49 269.965 394.019 272.647 394.441 275.247C394.934 277.8 395.683 279.818 396.688 281.301C397.55 282.573 398.442 283.205 399.365 283.198C400.288 283.191 401.173 282.9 402.021 282.326C403.717 281.177 405.088 279.474 406.136 277.218C407.255 274.914 408.111 272.375 408.706 269.601C409.3 266.827 409.67 264.103 409.815 261.427C409.913 258.681 409.753 256.316 409.335 254.331L411.431 254.457C412.099 258.333 412.249 262.509 411.881 266.985C411.465 271.391 410.431 275.493 408.779 279.293C407.198 283.044 404.889 285.949 401.851 288.007ZM452.69 255.411C450.712 256.752 448.562 257.229 446.24 256.845C443.917 256.46 441.638 255.53 439.402 254.056C437.237 252.534 435.224 250.857 433.364 249.025C431.527 247.075 430.058 245.287 428.957 243.662C429.734 243.136 430.745 242.193 431.989 240.835C433.185 239.406 434.297 237.776 435.324 235.946C436.304 234.045 436.893 232.1 437.091 230.11C437.312 228.002 436.824 226.065 435.627 224.299C434.621 222.815 433.302 222.009 431.668 221.879C430.034 221.75 428.51 222.163 427.097 223.121C424.908 224.605 423.386 226.77 422.531 229.617C421.629 232.393 421.239 235.544 421.36 239.069C421.505 242.476 421.91 245.964 422.576 249.533C423.242 253.102 423.989 256.41 424.816 259.456C425.644 262.503 426.326 265.031 426.862 267.038C427.3 268.597 427.274 269.852 426.784 270.802C426.342 271.823 425.697 272.621 424.85 273.195C423.649 274.009 422.431 274.113 421.195 273.507C420.031 272.853 418.875 271.832 417.728 270.445C416.605 268.939 415.492 267.373 414.391 265.748C411.902 262.075 409.63 257.43 407.576 251.812C405.521 246.195 403.736 240.137 402.219 233.64C400.725 227.025 399.528 220.466 398.627 213.964C397.725 207.462 397.135 201.419 396.856 195.836C396.577 190.252 396.672 185.601 397.141 181.882C397.61 178.162 398.48 175.872 399.752 175.01C400.741 174.34 401.972 174.484 403.447 175.443C404.992 176.355 406.411 177.764 407.704 179.671C409.331 182.073 410.645 185.152 411.643 188.908C412.594 192.593 413.11 196.624 413.191 201.002C413.342 205.332 412.985 209.749 412.119 214.252C411.325 218.708 410.02 222.943 408.204 226.956C409.75 234.258 411.766 241.035 414.251 247.288C416.759 253.423 419.258 258.327 421.747 262C420.963 258.409 420.198 254.391 419.455 249.947C418.782 245.455 418.416 240.961 418.359 236.465C418.301 231.968 418.803 227.917 419.864 224.312C420.925 220.706 422.763 218.018 425.377 216.247C427.99 214.475 430.838 213.886 433.919 214.478C437.001 215.07 439.427 216.673 441.198 219.286C442.73 221.547 443.446 223.896 443.346 226.335C443.269 228.655 442.718 230.884 441.693 233.022C440.69 235.041 439.509 236.873 438.149 238.516C436.811 240.041 435.612 241.162 434.553 241.88C435.006 242.398 435.913 243.278 437.271 244.522C438.63 245.766 440.177 246.986 441.914 248.179C443.721 249.325 445.527 250.164 447.329 250.695C449.084 251.155 450.668 250.906 452.081 249.948C454.129 248.56 455.546 246.467 456.329 243.668C457.113 240.869 457.455 237.648 457.356 234.004C457.281 230.241 456.848 226.256 456.059 222.049L457.836 222.391C459.193 226.523 459.9 230.837 459.958 235.333C459.968 239.759 459.348 243.787 458.097 247.418C456.965 251.071 455.163 253.736 452.69 255.411ZM407.133 221.497C408.611 216.681 409.426 211.799 409.578 206.852C409.801 201.856 409.554 197.385 408.838 193.438C408.074 189.42 407.093 186.528 405.896 184.762C405.657 184.409 405.454 184.185 405.288 184.092C405.192 183.951 405.073 183.928 404.932 184.024C404.226 184.502 403.827 186.576 403.737 190.246C403.717 193.867 404 198.468 404.587 204.049C405.126 209.56 405.974 215.376 407.133 221.497ZM480.384 237.572C476.075 240.492 472.011 241.493 468.194 240.575C464.495 239.68 461.473 237.502 459.127 234.041C456.973 230.862 455.476 226.98 454.637 222.395C453.868 217.762 453.737 213.005 454.245 208.126C454.823 203.199 456.055 198.704 457.941 194.643C459.78 190.511 462.253 187.391 465.361 185.285C466.986 184.184 468.757 183.603 470.673 183.541C472.66 183.431 474.54 184.683 476.311 187.297C478.13 189.981 479.041 193.075 479.044 196.578C479.069 199.962 478.398 203.458 477.029 207.066C475.73 210.626 473.934 214.059 471.639 217.367C469.368 220.555 466.809 223.32 463.963 225.661C464.3 226.463 464.649 227.206 465.009 227.89C465.369 228.574 465.741 229.198 466.124 229.763C466.842 230.823 467.666 231.81 468.596 232.727C469.597 233.595 470.726 234.272 471.984 234.76C473.194 235.177 474.497 235.273 475.892 235.05C477.357 234.778 478.902 234.092 480.527 232.991C483.564 230.933 485.992 228.051 487.81 224.345C489.58 220.568 490.779 216.405 491.408 211.856C492.036 207.307 492.084 202.739 491.552 198.151L493.47 198.243C494.435 203.774 494.487 209.099 493.627 214.218C492.837 219.289 491.285 223.845 488.973 227.886C486.779 231.95 483.916 235.178 480.384 237.572ZM463.128 223.289C464.605 221.361 466.137 218.982 467.725 216.154C469.265 213.255 470.556 210.215 471.597 207.036C472.708 203.809 473.276 200.692 473.301 197.686C473.396 194.632 472.678 191.975 471.146 189.714C470.619 188.937 470.071 188.433 469.501 188.2C468.932 187.968 468.188 188.163 467.269 188.785C465.574 189.934 464.227 191.826 463.229 194.461C462.184 197.025 461.496 199.965 461.166 203.281C460.836 206.597 460.827 210.005 461.137 213.506C461.448 217.006 462.111 220.267 463.128 223.289ZM521.265 207.085C518.863 208.713 516.525 209.37 514.25 209.055C512.047 208.693 510.251 207.488 508.862 205.44C507.426 203.32 506.413 200.76 505.822 197.759C505.231 194.757 504.629 191.815 504.016 188.932C503.425 185.931 502.507 183.512 501.262 181.675C499.731 179.415 497.935 178.21 495.874 178.06C493.837 177.791 491.836 177.652 489.871 177.643C491.071 182.912 492.056 188.017 492.827 192.958C493.599 197.899 494.065 201.706 494.228 204.379L492.053 203.224C491.798 200.717 491.25 197.171 490.411 192.586C489.642 187.953 488.503 182.849 486.993 177.275C485.808 177.047 484.88 176.439 484.21 175.45C482.774 173.33 482.201 171.193 482.493 169.037C482.784 166.881 483.212 165.611 483.777 165.228C484.555 164.702 485.218 164.768 485.767 165.426C486.339 165.966 486.745 166.413 486.984 166.766C487.224 167.119 487.49 167.969 487.785 169.316C488.102 170.545 488.332 171.265 488.476 171.477C489.146 172.466 490.298 173.025 491.932 173.155C493.589 173.166 495.483 173.222 497.614 173.325C499.697 173.356 501.77 173.755 503.835 174.52C505.923 175.167 507.733 176.621 509.265 178.881C510.701 181 511.702 183.466 512.267 186.278C512.904 189.043 513.433 191.725 513.855 194.325C514.348 196.878 515.097 198.896 516.102 200.379C516.964 201.651 517.856 202.283 518.779 202.276C519.702 202.269 520.587 201.978 521.435 201.404C523.13 200.255 524.502 198.552 525.55 196.296C526.669 193.991 527.525 191.452 528.119 188.679C528.714 185.905 529.084 183.181 529.229 180.505C529.327 177.759 529.167 175.393 528.749 173.408L530.845 173.534C531.513 177.411 531.663 181.587 531.295 186.063C530.878 190.469 529.844 194.571 528.193 198.37C526.612 202.122 524.302 205.027 521.265 207.085Z" fill="#FF7F50"/>
</svg>
