<svg width="80" height="28" viewBox="0 0 80 28" fill="none" xmlns="http://www.w3.org/2000/svg">
<path d="M6.48 24.416C6.048 24.416 5.52 24.272 4.896 23.984C4.296 23.696 3.696 23.336 3.096 22.904C2.496 22.472 1.98 22.028 1.548 21.572C1.116 21.092 0.852 20.672 0.756 20.312C1.548 19.952 2.376 19.46 3.24 18.836C4.104 18.212 4.92 17.528 5.688 16.784C6.456 16.04 7.092 15.32 7.596 14.624C7.644 14.672 7.68 14.792 7.704 14.984C7.752 15.152 7.776 15.296 7.776 15.416C7.776 15.896 7.572 16.388 7.164 16.892C6.78 17.372 6.276 17.852 5.652 18.332C5.028 18.788 4.356 19.22 3.636 19.628C2.94 20.036 2.292 20.396 1.692 20.708C2.244 21.092 2.748 21.452 3.204 21.788C3.684 22.1 4.248 22.412 4.896 22.724C5.568 23.036 6.444 23.408 7.524 23.84C7.428 23.96 7.284 24.092 7.092 24.236C6.924 24.356 6.72 24.416 6.48 24.416ZM12.8365 27.368C12.3805 27.368 12.0205 26.984 11.7565 26.216C11.4925 25.448 11.3605 24.584 11.3605 23.624C11.3605 22.472 11.5525 21.104 11.9365 19.52C12.3205 17.936 12.8245 16.268 13.4485 14.516C14.0725 12.764 14.7685 11.048 15.5365 9.368C16.3285 7.688 17.1325 6.164 17.9485 4.796C18.7645 3.428 19.5325 2.336 20.2525 1.52C20.9725 0.703999 21.5965 0.295998 22.1245 0.295998C22.5565 0.295998 22.8565 0.559999 23.0245 1.088C23.2165 1.592 23.3125 2.084 23.3125 2.564C23.3125 3.236 23.1565 4.052 22.8445 5.012C22.5565 5.972 22.1485 7.004 21.6205 8.108C21.0925 9.188 20.4805 10.256 19.7845 11.312C19.0885 12.368 18.3325 13.34 17.5165 14.228C16.7005 15.092 15.8725 15.776 15.0325 16.28C14.7445 16.976 14.4925 17.756 14.2765 18.62C14.0845 19.484 13.9405 20.336 13.8445 21.176C13.7485 21.992 13.7005 22.724 13.7005 23.372C13.7005 23.636 13.7005 23.864 13.7005 24.056C13.7245 24.248 13.7485 24.428 13.7725 24.596C14.1085 23.612 14.4685 22.664 14.8525 21.752C15.2605 20.816 15.6925 19.964 16.1485 19.196C16.6045 18.404 17.0845 17.72 17.5885 17.144C18.1165 16.544 18.6685 16.088 19.2445 15.776C19.8205 15.44 20.4325 15.272 21.0805 15.272C21.7525 15.272 22.2805 15.44 22.6645 15.776C23.0725 16.088 23.3605 16.496 23.5285 17C23.7205 17.48 23.8165 17.984 23.8165 18.512C23.8165 19.256 23.6845 19.976 23.4205 20.672C23.1805 21.368 22.9285 22.04 22.6645 22.688C22.4005 23.336 22.2685 23.96 22.2685 24.56C22.2685 25.04 22.3645 25.388 22.5565 25.604C22.7725 25.82 23.0365 25.928 23.3485 25.928C23.9005 25.928 24.5125 25.664 25.1845 25.136C25.8805 24.608 26.5645 23.912 27.2365 23.048C27.9085 22.16 28.4845 21.2 28.9645 20.168L29.4325 20.6C28.9285 21.776 28.3165 22.844 27.5965 23.804C26.8765 24.74 26.0845 25.484 25.2205 26.036C24.3565 26.588 23.4565 26.864 22.5205 26.864C21.7045 26.864 21.0805 26.648 20.6485 26.216C20.2405 25.784 20.0365 25.244 20.0365 24.596C20.0365 24.092 20.1325 23.528 20.3245 22.904C20.5165 22.28 20.6965 21.644 20.8645 20.996C21.0565 20.348 21.1525 19.736 21.1525 19.16C21.1525 18.536 21.0205 18.092 20.7565 17.828C20.4925 17.564 20.1685 17.432 19.7845 17.432C19.1845 17.432 18.6445 17.672 18.1645 18.152C17.6845 18.632 17.2405 19.256 16.8325 20.024C16.4485 20.768 16.0765 21.56 15.7165 22.4C15.3805 23.24 15.0565 24.044 14.7445 24.812C14.4325 25.556 14.1205 26.168 13.8085 26.648C13.4965 27.128 13.1725 27.368 12.8365 27.368ZM15.5005 14.876C16.1725 14.348 16.8205 13.676 17.4445 12.86C18.0925 12.044 18.6925 11.18 19.2445 10.268C19.7965 9.332 20.2885 8.42 20.7205 7.532C21.1525 6.644 21.4885 5.84 21.7285 5.12C21.9685 4.4 22.0885 3.86 22.0885 3.5C22.0885 3.38 22.0765 3.308 22.0525 3.284C22.0285 3.236 21.9925 3.212 21.9445 3.212C21.7765 3.212 21.4285 3.548 20.9005 4.22C20.3965 4.868 19.8085 5.744 19.1365 6.848C18.4645 7.952 17.8045 9.2 17.1565 10.592C16.5085 11.984 15.9565 13.412 15.5005 14.876ZM31.3256 27.656C30.2936 27.656 29.5016 27.356 28.9496 26.756C28.3976 26.156 28.1216 25.268 28.1216 24.092C28.1216 23.036 28.3136 21.74 28.6976 20.204C29.1056 18.644 29.6096 17.048 30.2096 15.416C29.9696 15.368 29.7416 15.332 29.5256 15.308C29.3096 15.26 29.1056 15.2 28.9136 15.128V14.48C29.1056 14.504 29.3336 14.528 29.5976 14.552C29.8616 14.576 30.1616 14.6 30.4976 14.624C31.0016 13.328 31.5416 12.08 32.1176 10.88C32.6936 9.656 33.2576 8.576 33.8096 7.64C34.3856 6.68 34.9256 5.924 35.4296 5.372C35.9576 4.796 36.4016 4.508 36.7616 4.508C36.9536 4.508 37.1216 4.58 37.2656 4.724C37.4336 4.844 37.5176 5.036 37.5176 5.3C37.5176 5.708 37.2656 6.38 36.7616 7.316C36.2576 8.228 35.6336 9.32 34.8896 10.592C34.1456 11.864 33.4256 13.244 32.7296 14.732C32.9456 14.732 33.1616 14.732 33.3776 14.732C33.6176 14.732 33.8456 14.732 34.0616 14.732C34.8536 14.732 35.6816 14.72 36.5456 14.696C37.4336 14.672 38.3216 14.612 39.2096 14.516V15.164C37.8896 15.308 36.7016 15.416 35.6456 15.488C34.6136 15.56 33.6896 15.596 32.8736 15.596C32.7776 15.596 32.6816 15.596 32.5856 15.596C32.5136 15.596 32.4296 15.596 32.3336 15.596C31.7816 16.868 31.3136 18.176 30.9296 19.52C30.5456 20.864 30.3536 22.172 30.3536 23.444C30.3536 24.476 30.5096 25.22 30.8216 25.676C31.1336 26.108 31.6496 26.324 32.3696 26.324C33.6176 26.324 34.8416 25.772 36.0416 24.668C37.2416 23.564 38.2976 22.064 39.2096 20.168L39.6776 20.528C39.1016 21.872 38.3696 23.084 37.4816 24.164C36.6176 25.244 35.6576 26.096 34.6016 26.72C33.5456 27.344 32.4536 27.656 31.3256 27.656ZM56.6753 27.116C55.8353 27.116 55.2233 26.852 54.8393 26.324C54.4553 25.82 54.2633 25.208 54.2633 24.488C54.2633 23.888 54.3473 23.288 54.5153 22.688C54.7073 22.088 54.8873 21.5 55.0553 20.924C55.2473 20.348 55.3433 19.832 55.3433 19.376C55.3433 18.896 55.2353 18.56 55.0193 18.368C54.8033 18.176 54.5633 18.08 54.2993 18.08C53.6993 18.08 53.0393 18.548 52.3193 19.484C51.6233 20.42 50.7113 21.74 49.5833 23.444C49.1993 24.02 48.8753 24.608 48.6113 25.208C48.3473 25.784 48.0953 26.312 47.8553 26.792C47.6633 26.792 47.4233 26.768 47.1353 26.72C46.8473 26.672 46.5833 26.588 46.3433 26.468C46.1273 26.372 46.0193 26.24 46.0193 26.072C46.0193 25.904 46.1273 25.508 46.3433 24.884C46.5833 24.236 46.8473 23.492 47.1353 22.652C47.4473 21.788 47.7113 20.924 47.9273 20.06C48.1673 19.172 48.2873 18.416 48.2873 17.792C48.2873 17.384 48.2153 17.06 48.0713 16.82C47.9513 16.556 47.7233 16.424 47.3873 16.424C46.8593 16.424 46.2233 16.748 45.4793 17.396C44.7353 18.02 43.9673 18.848 43.1753 19.88C42.3833 20.912 41.6273 22.052 40.9072 23.3C40.2113 24.524 39.6473 25.748 39.2153 26.972C38.9993 26.972 38.7353 26.936 38.4232 26.864C38.1112 26.792 37.8472 26.696 37.6312 26.576C37.3912 26.456 37.2712 26.336 37.2712 26.216C37.2712 26.072 37.4032 25.652 37.6672 24.956C37.9072 24.236 38.1952 23.384 38.5312 22.4C38.8433 21.392 39.1193 20.372 39.3593 19.34C39.6233 18.308 39.7553 17.396 39.7553 16.604C39.8993 16.436 40.1273 16.268 40.4393 16.1C40.7513 15.932 41.0753 15.848 41.4113 15.848C41.7473 15.848 41.9873 15.932 42.1313 16.1C42.2993 16.268 42.3833 16.496 42.3833 16.784C42.3833 17.096 42.2873 17.636 42.0953 18.404C41.9273 19.148 41.7113 19.976 41.4473 20.888C41.9273 20.12 42.4673 19.34 43.0673 18.548C43.6913 17.732 44.3393 16.988 45.0113 16.316C45.6833 15.644 46.3553 15.104 47.0273 14.696C47.7233 14.264 48.3953 14.048 49.0433 14.048C49.7873 14.048 50.2913 14.324 50.5553 14.876C50.8433 15.404 50.9873 16.04 50.9873 16.784C50.9873 17.384 50.9153 18.02 50.7713 18.692C50.6513 19.34 50.5073 19.952 50.3393 20.528C50.1713 21.08 50.0153 21.524 49.8713 21.86C50.3753 20.948 50.9273 20.072 51.5273 19.232C52.1513 18.368 52.8233 17.672 53.5433 17.144C54.2633 16.592 55.0313 16.316 55.8473 16.316C56.6153 16.316 57.1433 16.544 57.4313 17C57.7433 17.456 57.8993 17.996 57.8993 18.62C57.8993 19.244 57.7913 19.928 57.5753 20.672C57.3593 21.416 57.1313 22.136 56.8913 22.832C56.6753 23.528 56.5673 24.128 56.5673 24.632C56.5673 24.944 56.6393 25.232 56.7833 25.496C56.9513 25.736 57.2393 25.856 57.6473 25.856C58.3193 25.856 58.9433 25.556 59.5193 24.956C60.1193 24.332 60.6713 23.588 61.1753 22.724C61.6793 21.836 62.1113 20.984 62.4713 20.168L62.9033 20.672C62.5193 21.68 62.0273 22.688 61.4273 23.696C60.8273 24.68 60.1193 25.496 59.3033 26.144C58.5113 26.792 57.6353 27.116 56.6753 27.116ZM64.7927 27.08C63.7607 27.08 63.0167 26.72 62.5607 26C62.1287 25.304 61.9127 24.428 61.9127 23.372C61.9127 22.22 62.1287 20.852 62.5607 19.268C62.9927 17.684 63.5567 16.016 64.2527 14.264C64.9727 12.512 65.7527 10.808 66.5927 9.152C67.4327 7.472 68.2727 5.948 69.1127 4.58C69.9527 3.212 70.7207 2.12 71.4167 1.304C72.1367 0.487999 72.7007 0.079999 73.1087 0.079999C73.3727 0.079999 73.5887 0.235999 73.7567 0.547999C73.9247 0.835999 74.0567 1.196 74.1527 1.628C74.2487 2.036 74.2967 2.408 74.2967 2.744C74.2967 3.392 74.1287 4.244 73.7927 5.3C73.4807 6.332 73.0247 7.496 72.4247 8.792C71.8487 10.064 71.1527 11.36 70.3367 12.68C69.5447 13.976 68.6687 15.224 67.7087 16.424C66.7727 17.624 65.7767 18.656 64.7207 19.52C64.5767 20.168 64.4567 20.804 64.3607 21.428C64.2887 22.028 64.2527 22.604 64.2527 23.156C64.2527 24.092 64.3847 24.788 64.6487 25.244C64.9127 25.7 65.3087 25.928 65.8367 25.928C66.4847 25.928 67.1207 25.64 67.7447 25.064C68.3927 24.488 68.9927 23.768 69.5447 22.904C70.1207 22.016 70.6127 21.104 71.0207 20.168L71.5607 20.456C70.6007 22.496 69.5567 24.116 68.4287 25.316C67.3007 26.492 66.0887 27.08 64.7927 27.08ZM65.0447 18.296C65.8847 17.456 66.7007 16.496 67.4927 15.416C68.2847 14.312 69.0167 13.172 69.6887 11.996C70.3847 10.82 70.9967 9.68 71.5247 8.576C72.0527 7.472 72.4607 6.488 72.7487 5.624C73.0367 4.736 73.1807 4.052 73.1807 3.572C73.1807 3.332 73.1447 3.176 73.0727 3.104C73.0247 3.032 72.9767 2.996 72.9287 2.996C72.7367 2.996 72.4007 3.308 71.9207 3.932C71.4647 4.532 70.9247 5.348 70.3007 6.38C69.6767 7.412 69.0407 8.588 68.3927 9.908C67.7447 11.228 67.1207 12.608 66.5207 14.048C65.9447 15.488 65.4527 16.904 65.0447 18.296ZM73.8045 24.416C73.5645 24.416 73.3605 24.356 73.1925 24.236C73.0245 24.092 72.8805 23.96 72.7605 23.84C73.8645 23.408 74.7405 23.036 75.3885 22.724C76.0365 22.412 76.6005 22.1 77.0805 21.788C77.5605 21.452 78.0645 21.092 78.5925 20.708C77.9925 20.396 77.3325 20.036 76.6125 19.628C75.9165 19.22 75.2565 18.788 74.6325 18.332C74.0085 17.852 73.4925 17.372 73.0845 16.892C72.7005 16.388 72.5085 15.896 72.5085 15.416C72.5085 15.296 72.5325 15.152 72.5805 14.984C72.6285 14.792 72.6645 14.672 72.6885 14.624C73.1925 15.32 73.8285 16.04 74.5965 16.784C75.3645 17.528 76.1805 18.212 77.0445 18.836C77.9085 19.46 78.7365 19.952 79.5285 20.312C79.4325 20.672 79.1685 21.092 78.7365 21.572C78.3045 22.028 77.7885 22.472 77.1885 22.904C76.5885 23.336 75.9765 23.696 75.3525 23.984C74.7525 24.272 74.2365 24.416 73.8045 24.416Z" fill="black"/>
</svg>
