<svg width="340" height="340" viewBox="0 0 340 340" fill="none" xmlns="http://www.w3.org/2000/svg">
<path d="M141.667 269.167L140.96 268.46L140.252 269.167L140.96 269.874L141.667 269.167ZM197.626 211.793L140.96 268.46L142.374 269.874L199.04 213.207L197.626 211.793ZM140.96 269.874L197.626 326.54L199.04 325.126L142.374 268.46L140.96 269.874Z" fill="#CCD2E3"/>
<path d="M255.881 120.417C264.585 135.492 269.167 152.593 269.167 170C269.167 187.407 264.585 204.508 255.881 219.583C247.177 234.659 234.659 247.177 219.583 255.881C204.508 264.585 187.407 269.167 170 269.167" stroke="#CCD2E3" stroke-width="2" stroke-linecap="round"/>
<path d="M198.333 70.8333L199.04 71.5404L199.748 70.8333L199.04 70.1262L198.333 70.8333ZM142.374 128.207L199.04 71.5404L197.626 70.1262L140.96 126.793L142.374 128.207ZM199.04 70.1262L142.374 13.4596L140.96 14.8738L197.626 71.5404L199.04 70.1262Z" fill="#CCD2E3"/>
<path d="M84.1191 219.583C75.4154 204.508 70.8333 187.407 70.8333 170C70.8333 152.593 75.4155 135.492 84.1191 120.417C92.8228 105.341 105.341 92.8228 120.417 84.1191C135.492 75.4154 152.593 70.8333 170 70.8333" stroke="#CCD2E3" stroke-width="2" stroke-linecap="round"/>
</svg>
